<?xml version="1.0" encoding="utf-8"?>
<!-- Generator: Adobe Illustrator 16.0.0, SVG Export Plug-In . SVG Version: 6.00 Build 0)  -->
<!DOCTYPE svg PUBLIC "-//W3C//DTD SVG 1.1//EN" "http://www.w3.org/Graphics/SVG/1.1/DTD/svg11.dtd">
<svg version="1.1" id="Capa_1" xmlns="http://www.w3.org/2000/svg" xmlns:xlink="http://www.w3.org/1999/xlink" x="0px" y="0px"
	 width="400px" height="111.334px" viewBox="0 0 400 111.334" enable-background="new 0 0 400 111.334" xml:space="preserve">
<path fill="#D97D2D" d="M16.908,43.367c0,1.983-1.609,3.591-3.593,3.591c-1.983,0-3.592-1.608-3.592-3.591s1.608-3.592,3.592-3.592
	C15.299,39.775,16.908,41.384,16.908,43.367"/>
<path fill="#D97D2D" d="M17.522,52.707c0,2.607-2.113,4.72-4.72,4.72s-4.721-2.113-4.721-4.72c0-2.608,2.113-4.721,4.721-4.721
	S17.522,50.099,17.522,52.707"/>
<path fill="#D97D2D" d="M16.908,62.867c0,2.437-1.976,4.414-4.414,4.414s-4.413-1.977-4.413-4.414c0-2.438,1.975-4.414,4.413-4.414
	S16.908,60.428,16.908,62.867"/>
<path fill="#D97D2D" d="M16.908,72.309c0,1.983-1.609,3.592-3.593,3.592c-1.983,0-3.592-1.608-3.592-3.592
	c0-1.984,1.608-3.592,3.592-3.592C15.299,68.716,16.908,70.325,16.908,72.309"/>
<path fill="#D97D2D" d="M29.427,58.659c0,3.287-2.665,5.953-5.952,5.953c-3.287,0-5.953-2.667-5.953-5.953s2.666-5.952,5.953-5.952
	C26.762,52.707,29.427,55.372,29.427,58.659"/>
<path fill="#D97D2D" d="M23.887,47.677c0,1.758-1.426,3.183-3.183,3.183c-1.756,0-3.182-1.424-3.182-3.183
	c0-1.756,1.425-3.181,3.182-3.181C22.461,44.496,23.887,45.92,23.887,47.677"/>
<path fill="#D97D2D" d="M25.221,68.46c0,2.125-1.724,3.848-3.849,3.848s-3.849-1.724-3.849-3.848c0-2.126,1.723-3.849,3.849-3.849
	S25.221,66.334,25.221,68.46"/>
<path fill="#D97D2D" d="M35.996,69.435c0,2.663-2.159,4.823-4.824,4.823c-2.664,0-4.824-2.16-4.824-4.823
	c0-2.664,2.16-4.823,4.824-4.823C33.837,64.612,35.996,66.771,35.996,69.435"/>
<path fill="#D97D2D" d="M41.845,59.275c0,2.947-2.388,5.337-5.336,5.337c-2.947,0-5.337-2.39-5.337-5.337
	c0-2.948,2.39-5.337,5.337-5.337C39.457,53.938,41.845,56.327,41.845,59.275"/>
<path fill="#D97D2D" d="M36.817,46.241c0,3.571-2.895,6.466-6.465,6.466c-3.572,0-6.466-2.895-6.466-6.466
	c0-3.571,2.894-6.465,6.466-6.465C33.922,39.775,36.817,42.67,36.817,46.241"/>
<path fill="#D97D2D" d="M46.362,47.113c0,2.069-1.678,3.747-3.747,3.747s-3.746-1.678-3.746-3.747s1.677-3.746,3.746-3.746
	S46.362,45.044,46.362,47.113"/>
<path fill="#D97D2D" d="M56.367,57.735c0,3.797-3.079,6.876-6.876,6.876c-3.797,0-6.876-3.08-6.876-6.876
	c0-3.797,3.079-6.876,6.876-6.876C53.289,50.859,56.367,53.938,56.367,57.735"/>
<path fill="#D97D2D" d="M36.714,69.435c0-2.664,2.159-4.823,4.824-4.823c2.664,0,4.824,2.16,4.824,4.823
	c0,2.663-2.16,4.823-4.824,4.823C38.874,74.258,36.714,72.098,36.714,69.435"/>
<path fill="#D97D2D" d="M60.781,71.282c0,3.116-2.528,5.644-5.645,5.644c-3.117,0-5.645-2.527-5.645-5.644
	c0-3.117,2.528-5.644,5.645-5.644C58.253,65.638,60.781,68.165,60.781,71.282"/>
<path fill="#D97D2D" d="M82.076,67.997c0,4.818-3.906,8.724-8.724,8.724s-8.723-3.905-8.723-8.724c0-4.817,3.905-8.722,8.723-8.722
	S82.076,63.18,82.076,67.997"/>
<path fill="#D97D2D" d="M53.545,43.367c0,1.983-1.608,3.591-3.591,3.591s-3.592-1.608-3.592-3.591s1.608-3.592,3.592-3.592
	S53.545,41.384,53.545,43.367"/>
<path fill="#D97D2D" d="M64.578,45.317c0,3.062-2.481,5.542-5.542,5.542s-5.542-2.481-5.542-5.542c0-3.061,2.482-5.542,5.542-5.542
	S64.578,42.256,64.578,45.317"/>
<path fill="#D97D2D" d="M73.968,41.315c0,2.21-1.792,4.002-4.002,4.002c-2.211,0-4.002-1.792-4.002-4.002s1.792-4.004,4.002-4.004
	C72.176,37.311,73.968,39.104,73.968,41.315"/>
<path fill="#D97D2D" d="M73.353,52.296c0,3.117-2.527,5.644-5.645,5.644c-3.118,0-5.645-2.527-5.645-5.644
	c0-3.118,2.527-5.645,5.645-5.645C70.825,46.651,73.353,49.178,73.353,52.296"/>
<path fill="#D97D2D" d="M65.045,61.691c0,2.354-1.91,4.264-4.264,4.264c-2.355,0-4.264-1.91-4.264-4.264
	c0-2.354,1.909-4.264,4.264-4.264C63.135,57.427,65.045,59.336,65.045,61.691"/>
<path fill="#D97D2D" d="M98.085,59.275c0,4.818-3.905,8.722-8.724,8.722c-4.817,0-8.723-3.904-8.723-8.722
	c0-4.818,3.905-8.724,8.723-8.724C94.18,50.551,98.085,54.457,98.085,59.275"/>
<path fill="#D97D2D" d="M92.544,41.315c0,4.818-3.906,8.723-8.724,8.723c-4.817,0-8.723-3.905-8.723-8.723s3.906-8.723,8.723-8.723
	C88.638,32.592,92.544,36.497,92.544,41.315"/>
<path fill="#D97D2D" d="M81.768,53.117c0,2.068-1.677,3.746-3.745,3.746c-2.07,0-3.747-1.677-3.747-3.746
	c0-2.069,1.677-3.746,3.747-3.746C80.091,49.371,81.768,51.048,81.768,53.117"/>
<path fill="#D97D2D" d="M93.417,74.258c0,3.117-2.528,5.645-5.645,5.645c-3.118,0-5.645-2.527-5.645-5.645
	c0-3.118,2.527-5.645,5.645-5.645C90.889,68.613,93.417,71.14,93.417,74.258"/>
<path fill="#D97D2D" d="M110.863,73.334c0,4.818-3.905,8.725-8.724,8.725c-4.817,0-8.722-3.906-8.722-8.725
	c0-4.817,3.905-8.722,8.722-8.722C106.958,64.612,110.863,68.517,110.863,73.334"/>
<path fill="#D97D2D" d="M115.532,42.135c0,4.818-3.906,8.724-8.724,8.724c-4.817,0-8.723-3.906-8.723-8.724
	c0-4.817,3.906-8.723,8.723-8.723C111.626,33.413,115.532,37.318,115.532,42.135"/>
<path fill="#D97D2D" d="M98.085,47.677c0,1.702-1.378,3.079-3.079,3.079c-1.7,0-3.079-1.377-3.079-3.079
	c0-1.7,1.378-3.078,3.079-3.078C96.708,44.599,98.085,45.977,98.085,47.677"/>
<path fill="#D97D2D" d="M97.784,38.694c0,1.447-1.173,2.621-2.62,2.621c-1.447,0-2.62-1.173-2.62-2.621
	c0-1.446,1.173-2.62,2.62-2.62C96.611,36.075,97.784,37.248,97.784,38.694"/>
<path fill="#D97D2D" d="M104.756,56.196c0,1.7-1.378,3.079-3.078,3.079c-1.701,0-3.079-1.379-3.079-3.079
	c0-1.701,1.378-3.079,3.079-3.079C103.378,53.117,104.756,54.495,104.756,56.196"/>
<path fill="#D97D2D" d="M120.972,59.993c0,4.136-3.354,7.492-7.492,7.492c-4.138,0-7.492-3.355-7.492-7.492
	c0-4.138,3.354-7.492,7.492-7.492C117.618,52.501,120.972,55.855,120.972,59.993"/>
<path fill="#D97D2D" d="M124.82,76.721c0,3.685-2.986,6.671-6.67,6.671s-6.671-2.986-6.671-6.671s2.987-6.671,6.671-6.671
	S124.82,73.036,124.82,76.721"/>
<path fill="#D97D2D" d="M141.138,75.541c0,4.392-3.561,7.954-7.954,7.954c-4.393,0-7.954-3.563-7.954-7.954
	c0-4.394,3.561-7.954,7.954-7.954C137.577,67.587,141.138,71.147,141.138,75.541"/>
<path fill="#D97D2D" d="M138.06,57.735c0,4.392-3.562,7.953-7.954,7.953c-4.393,0-7.954-3.561-7.954-7.953
	c0-4.393,3.561-7.954,7.954-7.954C134.498,49.781,138.06,53.342,138.06,57.735"/>
<path fill="#D97D2D" d="M170.694,61.07c0,4.393-3.561,7.954-7.954,7.954c-4.392,0-7.954-3.562-7.954-7.954
	c0-4.393,3.562-7.954,7.954-7.954C167.133,53.117,170.694,56.677,170.694,61.07"/>
<path fill="#D97D2D" d="M159.2,79.03c0,4.392-3.561,7.954-7.954,7.954c-4.394,0-7.954-3.563-7.954-7.954
	c0-4.394,3.561-7.954,7.954-7.954C155.64,71.076,159.2,74.637,159.2,79.03"/>
<path fill="#D97D2D" d="M153.966,63.124c0,4.392-3.561,7.953-7.954,7.953s-7.953-3.561-7.953-7.953c0-4.394,3.56-7.954,7.953-7.954
	S153.966,58.729,153.966,63.124"/>
<path fill="#D97D2D" d="M189.886,64.149c0,4.392-3.561,7.952-7.954,7.952c-4.394,0-7.954-3.56-7.954-7.952
	c0-4.393,3.561-7.954,7.954-7.954C186.325,56.196,189.886,59.757,189.886,64.149"/>
<path fill="#D97D2D" d="M183.061,48.652c0,4.393-3.56,7.954-7.953,7.954s-7.954-3.562-7.954-7.954s3.561-7.954,7.954-7.954
	S183.061,44.26,183.061,48.652"/>
<path fill="#D97D2D" d="M175.108,32.13c0,4.392-3.561,7.954-7.954,7.954s-7.954-3.562-7.954-7.954c0-4.394,3.561-7.954,7.954-7.954
	S175.108,27.736,175.108,32.13"/>
<path fill="#D97D2D" d="M162.741,44.035c0,4.392-3.561,7.954-7.954,7.954c-4.394,0-7.954-3.562-7.954-7.954
	c0-4.393,3.561-7.954,7.954-7.954C159.18,36.081,162.741,39.642,162.741,44.035"/>
<path fill="#D97D2D" d="M179.315,83.7c0,3.74-3.032,6.773-6.773,6.773c-3.742,0-6.773-3.033-6.773-6.773
	c0-3.742,3.031-6.774,6.773-6.774C176.283,76.926,179.315,79.958,179.315,83.7"/>
<path fill="#D97D2D" d="M168.231,95.451c0,4.392-3.561,7.954-7.954,7.954c-4.393,0-7.953-3.563-7.953-7.954
	c0-4.394,3.56-7.954,7.953-7.954C164.671,87.497,168.231,91.058,168.231,95.451"/>
<path fill="#D97D2D" d="M152.221,91.68c0,2.592-2.102,4.695-4.695,4.695c-2.593,0-4.695-2.104-4.695-4.695
	c0-2.594,2.102-4.695,4.695-4.695C150.119,86.984,152.221,89.086,152.221,91.68"/>
<path fill="#D97D2D" d="M143.91,86.011c0,2.182-1.77,3.951-3.952,3.951c-2.183,0-3.954-1.77-3.954-3.951
	c0-2.184,1.771-3.952,3.954-3.952C142.14,82.059,143.91,83.827,143.91,86.011"/>
<path fill="#D97D2D" d="M167.617,75.541c0,2.182-1.77,3.952-3.952,3.952c-2.183,0-3.953-1.771-3.953-3.952
	c0-2.184,1.77-3.953,3.953-3.953C165.847,71.588,167.617,73.357,167.617,75.541"/>
<path fill="#D97D2D" d="M175.521,72.102c0,2.184-1.77,3.953-3.953,3.953c-2.183,0-3.952-1.77-3.952-3.953
	c0-2.183,1.769-3.952,3.952-3.952C173.751,68.149,175.521,69.919,175.521,72.102"/>
<path fill="#D97D2D" d="M147.246,50.859c0,2.182-1.77,3.952-3.953,3.952c-2.183,0-3.952-1.77-3.952-3.952
	c0-2.183,1.77-3.953,3.952-3.953C145.476,46.906,147.246,48.676,147.246,50.859"/>
<path fill="#D97D2D" d="M144.319,39.621c0,4.393-3.561,7.953-7.954,7.953c-4.393,0-7.954-3.56-7.954-7.953
	c0-4.393,3.561-7.953,7.954-7.953C140.758,31.668,144.319,35.229,144.319,39.621"/>
<path fill="#D97D2D" d="M124.359,48.652c0,2.183-1.77,3.953-3.952,3.953c-2.184,0-3.953-1.771-3.953-3.953
	c0-2.183,1.77-3.953,3.953-3.953C122.59,44.7,124.359,46.469,124.359,48.652"/>
<path fill="#D97D2D" d="M125.487,37.928c0,2.494-2.021,4.516-4.516,4.516s-4.516-2.022-4.516-4.516c0-2.494,2.021-4.515,4.516-4.515
	S125.487,35.434,125.487,37.928"/>
<path fill="#D97D2D" d="M189.886,76.926c0,2.438-1.976,4.414-4.414,4.414c-2.437,0-4.414-1.977-4.414-4.414
	c0-2.438,1.977-4.413,4.414-4.413C187.91,72.513,189.886,74.487,189.886,76.926"/>
<path fill="#D97D2D" d="M191.22,88.165c0,2.806-2.276,5.08-5.08,5.08c-2.807,0-5.082-2.274-5.082-5.08
	c0-2.807,2.274-5.082,5.082-5.082C188.944,83.083,191.22,85.358,191.22,88.165"/>
<path fill="#D97D2D" d="M178.907,97.864c0,2.722-2.207,4.928-4.928,4.928c-2.72,0-4.927-2.206-4.927-4.928s2.207-4.926,4.927-4.926
	C176.7,92.938,178.907,95.143,178.907,97.864"/>
<path fill="#D97D2D" d="M190.859,99.12c0,2.934-2.378,5.313-5.311,5.313c-2.934,0-5.313-2.379-5.313-5.313
	c0-2.935,2.379-5.313,5.313-5.313C188.481,93.807,190.859,96.186,190.859,99.12"/>
<path fill="#D97D2D" d="M192.249,53.117c0,2.182-1.77,3.953-3.951,3.953c-2.184,0-3.953-1.771-3.953-3.953
	c0-2.183,1.77-3.953,3.953-3.953C190.479,49.164,192.249,50.934,192.249,53.117"/>
<path fill="#D97D2D" d="M191.636,44.035c0,2.182-1.769,3.953-3.952,3.953c-2.183,0-3.953-1.771-3.953-3.953
	c0-2.184,1.77-3.954,3.953-3.954C189.867,40.081,191.636,41.851,191.636,44.035"/>
<path fill="#D97D2D" d="M156.583,25.458c0,4.392-3.561,7.954-7.954,7.954s-7.953-3.562-7.953-7.954c0-4.393,3.56-7.953,7.953-7.953
	S156.583,21.065,156.583,25.458"/>
<path fill="#D97D2D" d="M165.718,18.428c0,2.892-2.344,5.237-5.235,5.237c-2.892,0-5.235-2.345-5.235-5.237
	c0-2.892,2.343-5.234,5.235-5.234C163.374,13.194,165.718,15.537,165.718,18.428"/>
<path fill="#D97D2D" d="M174.646,15.966c0,2.182-1.77,3.952-3.952,3.952c-2.183,0-3.953-1.77-3.953-3.952
	c0-2.184,1.77-3.954,3.953-3.954C172.877,12.012,174.646,13.783,174.646,15.966"/>
<path fill="#D97D2D" d="M191.015,18.428c0,4.393-3.561,7.954-7.954,7.954c-4.393,0-7.953-3.562-7.953-7.954
	c0-4.393,3.56-7.953,7.953-7.953C187.454,10.476,191.015,14.035,191.015,18.428"/>
<path fill="#D97D2D" d="M189.271,34.488c0,3.429-2.78,6.21-6.209,6.21c-3.431,0-6.21-2.781-6.21-6.21s2.78-6.21,6.21-6.21
	C186.491,28.278,189.271,31.059,189.271,34.488"/>
<path fill="#262424" d="M195.522,15.409c0,0,9.598-4.851,22.607-4.851c12.9,0,22.188,8.361,22.188,20.231
	c0,7.223-2.579,11.866-6.504,14.862c5.572,2.682,9.497,7.741,9.497,16.411c0,12.078-9.909,20.542-23.844,20.542
	c-13.726,0-22.911-5.986-22.911-5.986L195.522,15.409z M214.826,61.756c0,0,7.634,1.857,7.431-3.926
	c-0.21-5.885-7.327-4.85-7.327-4.85L214.826,61.756z M214.93,42.244c0,0,7.638-0.412,7.327-5.161
	c-0.412-6.399-7.327-3.715-7.327-3.715C215.028,33.369,214.93,42.244,214.93,42.244"/>
<path fill="#262424" d="M286.584,11.489l-1.232,21.052c0,0-10.32,0.623-15.28,0.928v4.649c3.923-0.106,11.767-0.518,11.767-0.518
	l-0.513,17.132c0,0-6.294,0.107-11.254,0.207v6.092l14.145-1.961c0,0-0.623,14.656-0.823,20.436l-34.377,2.067l0.313-69.056
	L286.584,11.489z"/>
<path fill="#262424" d="M330.172,11.489l-1.236,21.052c0,0-10.32,0.623-15.28,0.928v4.649c3.926-0.106,11.767-0.518,11.767-0.518
	l-0.512,17.132c0,0-6.295,0.107-11.255,0.207v6.092l14.146-1.961c0,0-0.622,14.656-0.824,20.436l-34.374,2.067l0.312-69.056
	L330.172,11.489z"/>
<path fill="#262424" d="M351.561,10.765c1.445-0.104,3.513-0.207,5.883-0.207c10.221,0.103,26.534,2.992,26.534,24.773
	c0,10.527-4.339,16.614-9.498,20.229c5.159,8.053,11.97,18.479,11.97,18.479l-18.987,9.598L357.443,60.41h-1.024l-0.523,20.128
	l-20.019,0.932c0,0,0.412-66.678,0.516-67.197C336.393,14.168,343.819,11.282,351.561,10.765 M357.141,32.129l-0.311,10.736
	c0.201,0,7.64,0.413,7.74-5.576C364.672,31.099,358.066,31.922,357.141,32.129"/>
<path fill="#262424" d="M201.885,104.502c-2.338,0-4.279-0.731-6.081-1.521l1.211-5.799c1.604,0.648,3.321,1.154,4.391,1.154
	c0.618,0,1.156-0.169,1.211-0.591c0-0.647-0.929-0.846-1.38-0.873c-2.309-0.197-5.714-0.732-5.714-5.433
	c0-5.18,3.436-6.587,6.645-6.587c2.335,0,4.276,0.731,6.078,1.521l-1.21,5.798c-1.604-0.646-3.322-1.152-4.392-1.152
	c-0.62,0-1.04,0.167-1.098,0.59c-0.026,0.787,0.789,0.844,1.268,0.872c2.308,0.197,5.715,0.732,5.715,5.434
	C208.472,103.094,205.094,104.502,201.885,104.502"/>
<polygon fill="#262424" points="217.711,104.191 217.851,98.309 215.967,98.45 215.853,103.938 210.393,104.191 210.478,85.389 
	216.332,85.078 216.08,92.904 217.936,92.791 218.19,85.641 223.649,85.389 223.567,103.967 "/>
<path fill="#262424" d="M232.751,84.854c5.095,0,7.377,4.391,7.377,9.824c0,5.433-2.563,9.824-7.377,9.824
	c-4.813,0-7.346-4.392-7.346-9.824C225.405,89.244,227.657,84.854,232.751,84.854 M232.696,97.942c1.462,0,2.251-1.322,2.251-3.012
	c0-1.634-0.703-2.984-2.251-2.984c-1.549,0-2.253,1.351-2.253,2.984C230.443,96.62,231.232,97.942,232.696,97.942"/>
<path fill="#262424" d="M246.3,84.91c2.11-0.142,8.867-0.592,8.867,6.699c0,7.318-7.6,6.841-7.6,6.841l-0.085,5.487l-5.46,0.254
	c0,0,0.169-18.184,0.197-18.325C242.22,85.838,244.188,85.052,246.3,84.91 M247.737,93.665c0,0,2.11,0.112,2.138-1.521
	c0.028-1.83-2.138-1.408-2.11-1.408S247.737,93.665,247.737,93.665"/>
<path fill="#262424" d="M276.554,104.554c-2.471,0-4.521-0.771-6.426-1.605l1.279-6.128c1.695,0.685,3.509,1.22,4.64,1.22
	c0.654,0,1.222-0.179,1.28-0.625c0-0.684-0.981-0.893-1.459-0.923c-2.438-0.207-6.037-0.773-6.037-5.739
	c0-5.474,3.63-6.96,7.021-6.96c2.469,0,4.52,0.772,6.423,1.604l-1.278,6.128c-1.695-0.685-3.511-1.22-4.641-1.22
	c-0.654,0-1.1,0.179-1.159,0.626c-0.029,0.832,0.832,0.892,1.339,0.922c2.438,0.208,6.037,0.773,6.037,5.74
	C283.515,103.066,279.945,104.554,276.554,104.554"/>
<path fill="#262424" d="M295.688,84.061c0,0,4.49,19.065,4.552,19.065c0.057,0-5.921,1.011-5.921,1.07
	c0,0.029-0.207-1.308-0.416-3.063l-2.794-0.061c-0.27,1.785-0.507,3.153-0.507,3.153c-0.062,0.031-5.83-0.711-5.83-0.711
	s4.58-19.127,4.609-19.158C289.409,84.327,295.688,84.061,295.688,84.061 M292.326,93.072c0,0-0.208,1.31-0.445,2.974h1.367
	c-0.237-1.664-0.387-3.032-0.387-3.032L292.326,93.072z"/>
<path fill="#262424" d="M302.063,104.196c0,0,0.089-17.876,0.06-19.84l6.247-0.326c0.593,2.23,2.141,8.417,2.141,8.24
	c0,0.089,0.119-7.914,0.119-7.914l5.83-0.296c0,0-0.477,19.333-0.357,19.333s-5.89,0.565-5.89,0.565l-2.23-8.716l-0.18,8.745
	L302.063,104.196z"/>
<polygon fill="#262424" points="319.025,84.357 331.992,84.061 331.992,90.9 328.395,90.991 328.066,103.959 322.297,104.226 
	322.355,91.139 319.025,91.198 "/>
<polygon fill="#262424" points="340.301,84.061 339.797,103.959 334.023,104.226 334.114,84.357 "/>
<path fill="#262424" d="M352.561,84.061c0,0,4.489,19.065,4.55,19.065c0.059,0-5.92,1.011-5.92,1.07
	c0,0.029-0.209-1.308-0.416-3.063l-2.794-0.061c-0.27,1.785-0.507,3.153-0.507,3.153c-0.061,0.031-5.83-0.711-5.83-0.711
	s4.58-19.127,4.61-19.158C346.28,84.327,352.561,84.061,352.561,84.061 M349.197,93.072c0,0-0.208,1.31-0.445,2.974h1.368
	c-0.236-1.664-0.388-3.032-0.388-3.032L349.197,93.072z"/>
<path fill="#262424" d="M365.952,98.07h0.331c0-0.774-0.122-4.255-0.122-4.283l5.535,0.028l-0.209,10.173
	c-1.042,0.356-2.083,0.564-3.302,0.564c-4.73,0-9.966-1.635-9.966-9.754c0-9.52,7.377-10.738,11.304-10.738
	c1.396,0,2.111,0.147,2.111,0.147s-0.119,7.229-0.179,7.169c-0.981-0.238-1.665-0.417-2.616-0.417c-2.854,0-4.819,1.637-4.819,4.047
	C364.021,97.981,365.331,98.07,365.952,98.07"/>
<path fill="#262424" d="M380.982,83.793c5.385,0,7.796,4.638,7.796,10.381c0,5.739-2.709,10.38-7.796,10.38
	c-5.084,0-7.762-4.641-7.762-10.38C373.221,88.431,375.601,83.793,380.982,83.793 M380.926,97.623c1.545,0,2.379-1.397,2.379-3.182
	c0-1.727-0.745-3.154-2.379-3.154c-1.638,0-2.381,1.428-2.381,3.154C378.545,96.226,379.378,97.623,380.926,97.623"/>
<rect x="257.898" y="92.757" fill="#262424" width="7.545" height="2.513"/>
</svg>
