<?xml version="1.0" encoding="UTF-8"?>
<svg width="105px" height="136px" viewBox="0 0 105 136" version="1.1" xmlns="http://www.w3.org/2000/svg" xmlns:xlink="http://www.w3.org/1999/xlink">
    <defs>
        <polygon id="path-1" points="0 0.116096805 104.256856 0.116096805 104.256856 135.2153 0 135.2153"></polygon>
        <polygon id="path-3" points="0 0.116096805 104.256856 0.116096805 104.256856 136 0 136"></polygon>
    </defs>
    <g id="Page-1" stroke="none" stroke-width="1" fill="none" fill-rule="evenodd">
        <g id="Group-19" transform="translate(0.000000, -1.000000)">
            <g id="Group-3" transform="translate(0.000000, 0.884000)">
                <mask id="mask-2" fill="white">
                    <use xlink:href="#path-1"></use>
                </mask>
                <g id="Clip-2"></g>
                <path d="M49.2167,104.2843 C49.7297,104.3123 50.2437,104.3363 50.7597,104.3493 C51.8317,104.3773 52.8887,104.3633 53.9427,104.3273 C53.8267,107.9383 53.9277,111.7213 51.2997,113.8433 C55.6167,113.7193 59.8827,110.2553 62.0507,106.5833 C65.9757,109.3903 60.1387,113.9743 61.7537,117.8883 C65.5367,113.5143 71.3067,107.7633 70.6177,100.9663 C89.7857,93.6643 103.6687,75.3513 104.2387,53.6063 C104.9917,24.8753 82.2287,0.8873 53.4927,0.1343 C24.7587,-0.6197 0.7727,22.1443 0.0177,50.8753 C-0.4513,68.8003 8.2327,84.8803 21.8087,94.6223 C23.0577,97.7883 23.7457,101.4883 25.9207,103.7523 C29.2197,104.7863 30.9307,107.3233 31.7767,110.6943 C34.0247,111.4943 35.1607,113.3553 37.7257,113.8653 C41.1607,120.0923 43.4807,127.2393 45.3647,135.2153 L47.7567,135.2153 C48.3697,126.1483 47.2307,114.0283 49.2167,104.2843" id="Fill-1" fill="#FFFFFF" mask="url(#mask-2)"></path>
            </g>
            <g id="Group-6" transform="translate(0.000000, 0.884000)">
                <mask id="mask-4" fill="white">
                    <use xlink:href="#path-3"></use>
                </mask>
                <g id="Clip-5"></g>
                <path d="M102.1957,53.5543 C101.8117,68.1813 95.1577,81.1933 84.8827,90.0913 L83.2697,89.3303 C93.9067,80.4023 100.1747,67.4433 100.5407,53.5103 C101.2407,26.8143 80.0917,4.5303 53.3967,3.8293 C26.7047,3.1303 4.4147,24.2763 3.7147,50.9723 C3.4237,62.0593 7.4907,73.6323 14.9047,82.9533 C14.2527,83.1053 13.6157,83.2723 13.0047,83.4683 C5.8837,74.5593 1.7427,63.1953 2.0647,50.9283 C2.7887,23.3223 25.8337,1.4523 53.4397,2.1763 C81.0467,2.8993 102.9197,25.9463 102.1957,53.5543 L102.1957,53.5543 Z M63.8117,111.1553 C65.6277,106.1153 56.1097,102.4723 61.5357,97.5203 C61.4247,98.2133 60.2227,100.8943 61.8247,100.9223 C62.6377,100.3593 62.0507,98.3193 63.0347,97.9363 C65.3757,98.5303 64.5247,102.1523 65.9027,103.6673 C68.2257,99.7703 63.2617,96.6883 61.2397,94.4953 C60.5117,95.2623 60.7437,96.4293 59.3247,95.5763 C59.5137,94.5763 60.0847,93.9763 60.8637,93.5973 C60.6027,94.0183 60.6787,94.3253 61.2397,94.4953 C63.6497,95.2213 65.6517,99.3653 68.9967,100.1733 C69.6947,104.4473 66.5797,109.0743 63.8117,111.1553 L63.8117,111.1553 Z M59.0097,107.6373 C58.6247,106.8953 58.3257,106.0763 56.7767,106.4463 C56.7467,105.0003 57.0847,106.3153 57.9147,106.0953 C58.6647,106.1123 58.4177,105.0803 59.4447,105.3833 C59.6817,106.5433 59.0197,106.7473 59.0097,107.6373 L59.0097,107.6373 Z M54.0537,102.2833 C52.9807,102.3253 51.9007,102.3343 50.8147,102.3063 C50.4367,102.2973 50.0607,102.2803 49.6847,102.2623 C49.6967,102.2143 49.7087,102.1633 49.7217,102.1143 C53.0527,101.3623 54.7937,96.8723 57.0457,96.2693 C54.9047,97.5423 54.2757,99.7753 54.0537,102.2833 L54.0537,102.2833 Z M47.4027,104.3153 C45.3907,104.6503 44.2167,105.8603 42.0757,106.0593 C43.5117,105.4223 44.7067,104.7213 45.8167,103.9833 C46.3367,104.0463 46.8597,104.1003 47.3847,104.1483 C47.3877,104.2043 47.3917,104.2603 47.4027,104.3153 L47.4027,104.3153 Z M76.5827,55.6093 L76.6907,55.6153 C76.6567,55.6373 76.6227,55.6583 76.5847,55.6763 C76.5847,55.6543 76.5827,55.6313 76.5827,55.6093 L76.5827,55.6093 Z M39.5697,86.7593 C37.0347,86.4663 35.4367,82.1073 32.9437,80.5523 C35.1177,81.1863 37.1407,85.1443 39.5697,86.7593 L39.5697,86.7593 Z M40.3977,83.7633 C37.5837,82.1483 36.0947,79.2733 34.5587,76.4473 C36.8567,78.5543 39.1357,80.6773 40.3977,83.7633 L40.3977,83.7633 Z M37.2147,75.7623 C39.0897,78.7043 41.8387,81.9893 42.6197,85.3333 C40.0997,80.3743 36.7627,76.1903 34.3237,71.1613 C34.8067,70.5413 36.2787,74.3013 37.2147,75.7623 L37.2147,75.7623 Z M43.4907,95.1603 C42.0417,95.4413 40.4537,95.5743 38.5857,95.4103 C38.5337,94.9663 37.9057,95.0733 37.4657,95.0033 C38.2397,93.9443 39.8107,95.1943 40.8557,95.0923 C41.7797,95.3463 44.2317,94.2183 43.4907,95.1603 L43.4907,95.1603 Z M40.0017,70.1803 C38.8757,69.5763 40.3577,68.5333 40.0707,67.5423 C39.7807,66.7683 38.7237,68.4113 38.1567,68.6233 C36.0577,64.8793 34.3297,61.2653 35.8337,56.4923 C39.2287,55.6503 40.7927,58.9233 43.6707,59.7143 C41.5537,62.5323 40.7717,66.9873 40.0017,70.1803 L40.0017,70.1803 Z M46.4087,70.3473 C47.2117,68.5073 47.8397,69.8063 49.8177,69.6823 L49.7887,70.8103 C47.6647,71.2893 47.7417,69.6723 46.4087,70.3473 L46.4087,70.3473 Z M73.6487,55.4583 C73.6137,58.1173 72.4727,61.2693 73.7487,63.1443 C71.5097,69.2043 68.5437,77.4823 64.9317,82.8983 C62.4817,86.5883 55.9557,90.3303 52.8297,84.4673 C52.1227,84.5033 51.5627,84.6823 51.2957,85.1823 C51.3407,83.6883 52.3417,82.9923 51.0187,81.4043 C51.4827,81.2543 51.8077,80.9443 51.8027,80.2943 C53.5287,82.0483 53.8917,80.5673 56.3287,80.4133 C57.0457,79.4413 55.8347,77.7943 57.1687,77.0393 C51.3077,76.4503 48.8847,75.8843 45.1847,73.7073 C51.5987,73.1403 54.3227,74.1713 60.6507,73.7393 C59.5017,72.2533 56.5037,72.5283 53.8927,72.4283 C54.2717,70.4903 53.9467,68.1033 54.0607,66.0223 C54.0747,66.7133 59.4087,62.5913 59.3787,64.6523 C59.8777,64.5333 59.9937,64.0053 60.5327,63.9293 C59.9697,63.8033 59.8707,63.4073 59.0527,62.7593 C56.0837,64.6973 51.5437,65.9273 49.6397,62.1333 C48.6527,61.9953 48.3907,62.6263 48.4687,63.6133 C47.3927,63.5313 47.8217,62.0233 47.7847,60.9523 C49.1727,60.3513 51.0137,60.2243 50.8787,58.0193 C56.8777,58.3143 61.0297,56.6603 65.1987,55.0243 L73.6487,55.4583 Z M30.9477,55.9863 C29.8387,55.7673 29.7977,54.5393 29.8647,53.2073 L30.6417,53.2473 C30.5567,54.2253 30.6527,55.2693 30.9477,55.9863 L30.9477,55.9863 Z M31.7077,55.6323 C31.4437,55.3723 31.4477,54.4383 31.5797,53.2953 L32.2267,53.3283 C32.1987,54.2713 31.9837,55.2723 31.7077,55.6323 L31.7077,55.6323 Z M32.6197,63.9503 C31.3487,64.0483 31.8807,57.3213 32.4657,55.6513 L32.3767,59.0413 C33.0557,60.4693 32.2507,63.1593 32.6197,63.9503 L32.6197,63.9503 Z M48.3497,102.1803 C49.6857,101.1983 51.0747,100.1803 52.8207,99.1733 C53.2737,99.9343 50.5767,100.9633 48.8167,102.2113 C48.6607,102.2003 48.5047,102.1923 48.3497,102.1803 L48.3497,102.1803 Z M51.8727,91.9843 C52.3237,93.0353 53.8877,93.0163 55.2367,93.2063 C53.0707,94.9043 50.7537,99.3383 48.6807,98.6903 C48.2757,97.4753 50.3977,95.6033 51.0577,94.2273 C50.0297,93.1223 50.2807,90.8023 48.1337,90.7603 C50.3547,89.7373 58.4947,91.6043 60.9867,89.5873 C59.1837,92.5893 57.1687,95.3733 54.7407,97.7193 C54.3537,97.7513 54.0177,96.0713 53.6217,97.3133 C53.4437,95.5713 56.8127,94.2293 57.5277,92.1343 C56.3127,90.7763 53.4127,91.4713 51.8727,91.9843 L51.8727,91.9843 Z M56.9337,100.4173 C57.7007,101.6103 58.3987,103.6973 57.5567,105.3353 C57.7747,103.8773 56.7477,101.5363 56.9337,100.4173 L56.9337,100.4173 Z M7.8007,38.5653 L20.8077,43.6173 C25.8677,30.5303 38.4497,21.4303 52.9247,21.8103 C67.7167,22.1973 79.9997,32.3673 84.1197,46.1423 L97.1257,40.9713 C98.1257,44.9613 98.6087,49.1493 98.4957,53.4573 C98.1387,67.1183 91.8527,79.8013 81.2247,88.3653 L71.7677,83.9023 C71.8787,82.6093 71.7807,81.3903 71.4077,80.4303 C71.1117,81.2813 72.0147,83.3863 70.5917,83.0473 C68.7777,82.6653 72.1397,78.8843 69.5647,78.8733 C67.9777,82.1093 66.4967,87.5123 63.6647,88.1463 C68.7667,82.4693 67.9407,72.8773 74.3597,68.8183 C75.8847,63.1643 76.7877,60.8323 77.8287,55.6733 L79.2237,55.7443 C85.2957,53.2623 77.8497,36.6613 74.5397,34.6133 C71.2297,32.5723 59.6017,29.4213 54.3857,28.6373 C49.1727,27.8523 39.5037,33.6403 38.0037,33.9243 C36.4987,34.2073 32.3547,41.9753 25.2227,43.0813 C18.0917,44.1853 28.0017,53.1113 28.0017,53.1113 L28.5077,53.1373 L26.4667,57.5563 C26.7117,57.2693 27.3837,57.4303 27.8897,57.4153 C29.1307,56.5993 27.3067,54.5773 28.3587,54.0353 C29.3707,56.8673 29.0557,60.3193 28.1197,63.0793 C30.1407,64.8373 32.0127,66.7383 34.0087,68.5143 C32.7807,68.7663 31.6597,69.1363 30.5917,69.5553 C29.5107,72.5063 28.9067,73.6563 27.7737,76.2683 C28.6687,81.0543 30.7927,84.6763 32.3497,88.8363 C29.8257,86.0843 28.9047,81.8133 27.7367,77.7783 C24.3887,80.1033 28.0717,84.3503 29.3687,87.2483 C30.9497,90.7583 32.5337,94.6003 33.2597,97.1563 C30.2907,91.6403 27.3427,86.1113 25.0377,79.9693 C22.9677,81.3923 20.0407,81.9153 17.1537,82.4793 C9.6237,73.4013 5.4707,61.9563 5.7577,51.0253 C5.8707,46.6943 6.5797,42.5163 7.8007,38.5653 L7.8007,38.5653 Z M38.4887,16.9313 C37.7227,14.1303 38.9597,11.3313 41.2647,10.7023 C43.5577,10.0803 46.0577,11.8593 46.8177,14.6593 C47.5947,17.4773 46.3317,20.2663 44.0437,20.8893 C41.7377,21.5193 39.2527,19.7503 38.4887,16.9313 L38.4887,16.9313 Z M19.4437,26.0043 L18.6817,26.8773 L18.7627,28.1283 L19.7317,28.9753 L19.1797,29.6033 L16.9927,27.6843 L22.5667,21.3243 L24.7567,23.2363 L24.2107,23.8643 L23.2377,23.0133 L21.9877,23.0953 L21.2237,23.9683 L27.6487,29.5983 L28.3247,28.8313 L28.8827,29.3223 L25.7607,32.8873 L25.2017,32.3973 L25.8677,31.6313 L19.4437,26.0043 Z M33.3817,24.7033 L34.1067,24.2463 L34.5077,24.8733 L30.7907,27.2213 L30.3957,26.5953 L31.0947,26.1533 L26.5437,18.9533 L25.8437,19.3973 L25.4367,18.7563 L30.0937,15.8093 C30.7157,15.4223 31.8257,15.1393 32.5427,15.2953 C33.1587,15.3283 33.8827,15.6503 34.3057,16.3143 C34.9867,17.3903 34.8287,18.7433 33.9857,19.5803 L37.8937,21.8533 L38.5967,21.4063 L38.9977,22.0373 L35.9807,23.9413 L31.8607,21.2493 L31.3897,21.5463 L33.3817,24.7033 Z M53.7787,18.7623 L53.7517,19.5033 L49.3607,19.3473 L49.3897,18.6023 L50.2447,18.6373 L50.5517,10.1123 L49.6947,10.0813 L49.7197,9.3393 L55.8687,9.5593 C57.3417,9.6103 58.4877,10.8403 58.4297,12.3143 C58.3827,13.8023 57.1497,14.9453 55.6777,14.8903 L53.0877,14.7993 L52.9507,18.7323 L53.7787,18.7623 Z M65.8067,16.1883 L66.1257,15.2543 L66.8247,15.4923 L65.9727,17.9993 L65.2707,17.7593 L65.5897,16.8253 L64.0167,16.2893 L62.6427,20.3123 L65.4367,21.2643 L66.5627,20.7083 L66.9737,19.5033 L67.7607,19.7703 L66.8267,22.5183 L59.0627,19.8783 L59.3017,19.1763 L60.0887,19.4403 L62.8347,11.3823 L62.0457,11.1133 L62.2887,10.3983 L69.7907,12.9503 L68.9807,15.3363 L68.1917,15.0683 L68.4817,14.2283 L67.9087,13.1103 L65.3887,12.2533 L64.2337,15.6533 L65.8067,16.1883 Z M76.1347,28.0733 L75.7007,28.6733 L72.8247,26.5643 L73.8207,21.7403 L73.3737,21.4143 L71.1667,24.4253 L71.8577,24.9313 L71.4177,25.5333 L67.8727,22.9323 L68.3157,22.3333 L68.9847,22.8253 L74.0217,15.9613 L73.3517,15.4693 L73.7997,14.8573 L78.2437,18.1173 C78.8297,18.5493 79.4927,19.4833 79.6157,20.2083 C79.8127,20.7933 79.7807,21.5863 79.3147,22.2193 C78.5567,23.2473 77.2407,23.5943 76.1547,23.1163 L75.4677,27.5783 L76.1347,28.0733 Z M82.5247,36.6993 L81.9247,37.1343 L79.4627,33.7213 L80.0677,33.2873 L80.5707,33.9833 L81.8937,32.1493 L79.8847,29.3633 L77.7197,30.0243 L78.1517,30.6163 L77.5377,31.0503 L76.2367,29.2383 L76.8397,28.8043 L77.1877,29.2813 L86.5367,26.4053 L87.8777,28.2643 L82.1727,36.2123 L82.5247,36.6993 Z M53.4927,0.1343 C24.7587,-0.6197 0.7727,22.1443 0.0177,50.8753 C-0.4513,68.8003 8.2327,84.8803 21.8087,94.6223 C23.0577,97.7883 23.7457,101.4883 25.9207,103.7523 C29.2197,104.7863 30.9307,107.3233 31.7767,110.6943 C34.0247,111.4943 35.1607,113.3553 37.7257,113.8653 C41.2117,120.1833 43.5507,127.4453 45.4507,135.5633 C46.2737,125.3273 41.8397,115.4213 38.6657,106.7223 C40.0207,106.8613 40.4987,106.0783 41.6997,106.0513 C41.4717,106.8103 40.5447,106.7613 41.2817,107.5483 C42.7727,107.7233 43.6097,106.7223 44.2847,108.0053 C43.9937,110.0863 44.2387,111.4303 44.4917,114.4203 C45.4247,114.9423 45.7157,112.9603 46.0137,114.0833 C45.6457,121.0163 45.3887,129.7643 47.7037,136.0003 C48.4437,126.8583 47.1737,114.3093 49.2167,104.2843 C49.7297,104.3123 50.2437,104.3363 50.7597,104.3493 C51.8307,104.3773 52.8887,104.3633 53.9427,104.3273 C53.8267,107.9383 53.9277,111.7213 51.2997,113.8433 C55.6167,113.7193 59.8827,110.2553 62.0507,106.5833 C65.9757,109.3903 60.1387,113.9743 61.7537,117.8883 C65.5367,113.5143 71.3067,107.7623 70.6177,100.9663 C89.7857,93.6643 103.6687,75.3513 104.2387,53.6063 C104.9917,24.8753 82.2287,0.8873 53.4927,0.1343 L53.4927,0.1343 Z" id="Fill-4" fill="#161615" mask="url(#mask-4)"></path>
            </g>
            <path d="M26.3759,58.638 L26.4669,58.441 C26.4229,58.492 26.3879,58.554 26.3759,58.638" id="Fill-7" fill="#161615"></path>
            <path d="M42.0946,19.7391 C42.3186,20.5671 43.0226,21.1781 43.7886,20.9681 C44.5656,20.7561 44.8586,19.8751 44.6346,19.0491 L43.1316,13.5391 C42.9076,12.7121 42.2056,12.1001 41.4326,12.3141 C40.6656,12.5231 40.3676,13.4061 40.5946,14.2311 L42.0946,19.7391 Z" id="Fill-9" fill="#161615"></path>
            <path d="M55.4272,13.9501 L55.4892,12.2491 C55.5142,11.5321 54.8592,11.1491 54.4002,11.1351 L53.2582,11.0941 L53.1142,14.9391 L54.2592,14.9811 C54.7162,14.9971 55.4002,14.6631 55.4272,13.9501" id="Fill-11" fill="#161615"></path>
            <path d="M32.2743,19.4994 L31.4613,18.2154 C31.0803,17.6124 30.1933,17.5164 29.5913,17.9084 L28.8313,18.3924 L30.9963,21.8164 L31.7603,21.3324 C32.3683,20.9604 32.6553,20.1054 32.2743,19.4994" id="Fill-13" fill="#161615"></path>
            <path d="M76.4232,22.0526 L77.3262,20.8286 C77.7452,20.2526 77.5092,19.3886 76.9262,18.9796 L76.1952,18.4446 L73.8052,21.7086 L74.5322,22.2406 C75.1042,22.6756 76.0032,22.6306 76.4232,22.0526" id="Fill-15" fill="#161615"></path>
            <polygon id="Fill-17" fill="#161615" points="82.3383 32.3993 85.0183 28.6493 80.6243 30.0183"></polygon>
        </g>
    </g>
</svg>