<?xml version="1.0" encoding="utf-8"?>
<!-- Generator: Adobe Illustrator 15.0.0, SVG Export Plug-In . SVG Version: 6.00 Build 0)  -->
<!DOCTYPE svg PUBLIC "-//W3C//DTD SVG 1.1//EN" "http://www.w3.org/Graphics/SVG/1.1/DTD/svg11.dtd">
<svg version="1.1" id="Capa_1" xmlns="http://www.w3.org/2000/svg" xmlns:xlink="http://www.w3.org/1999/xlink" x="0px" y="0px"
	 width="170px" height="120px" viewBox="0 0 170 120" enable-background="new 0 0 170 120" xml:space="preserve">
<g>
	<path fill="#4F3F2B" d="M131.33,36.113l1.201-0.589c2.814-1.441,3.887-4.068,3.887-6.89c0-2.487-1.082-5.15-3.205-6.411
		c-0.705-0.417-2.057-0.972-3.043-1.251c-7.602-2.934-30.094-8.05-37.414-9.539c-6.035-1.477-1.104-8.439-7.541-8.439
		c-6.703,0-1.417,6.624-6.941,8.31c-7.512,1.547-31.334,6.897-38.255,9.8c-0.111,0.046-0.229,0.093-0.329,0.139
		c-0.567,0.232-1.112,0.465-1.641,0.702c-2.283,1.331-3.802,3.653-3.802,6.298c0,2.812,1.288,5.252,3.88,7.123l0.992,0.747
		c-0.155,6.439-2.349,11.354-6.178,15.981c0,0,2.066,11.723,4.434,16.982c5.215,21.754,24.777,37.93,48.132,37.93
		c23.333,0,42.885-16.15,48.116-37.877c2.328-5.154,3.85-10.75,4.414-16.623C136.152,50.312,131.594,43.2,131.33,36.113z"/>
	<g>
		<path fill="#4F3F2B" d="M45.874,85.932c12.35-3.129,25.551-4.834,39.28-4.834c13.644,0,26.772,1.686,39.062,4.779
			c8.277,2.086,16.176,4.801,23.582,8.094l9.121-25.064c-7.857-4.344-16.383-8.346-25.434-11.621
			c-14.324-5.182-29.959-8.547-46.331-8.547c-16.482,0-32.209,3.4-46.61,8.639c-9.048,3.29-17.569,7.307-25.417,11.666l9.115,25.047
			C29.663,90.773,37.579,88.037,45.874,85.932z"/>
	</g>
	<path fill="#4F3F2B" d="M143.203,63.246c-0.221-0.123-0.441-0.252-0.666-0.377c-6.301-3.484-13.139-6.696-20.398-9.326
		c-11.441-4.139-23.934-6.827-37.009-6.827c-13.165,0-25.73,2.714-37.23,6.9c-7.24,2.633-14.055,5.85-20.336,9.338
		c-0.237,0.133-0.471,0.264-0.706,0.398c-0.916,0.65-1.519,1.719-1.519,2.928c0,0.117,0.024,0.229,0.035,0.342l0.632,1.732
		l8.875,24.385c5.926-2.65,12.25-4.836,18.876-6.514c9.862-2.5,20.411-3.867,31.375-3.867c10.897,0,21.386,1.354,31.202,3.824
		c6.609,1.664,12.92,3.832,18.838,6.463l8.846-24.301l0.709-1.951c0.006-0.07,0.02-0.133,0.02-0.203
		C144.744,64.973,144.133,63.898,143.203,63.246z"/>
	<path fill="#F0E6D1" d="M7.582,72.469l5.436,9.588l4.91,8.336c2.785-1.881,5.722-3.639,8.781-5.271l-7.741-21.264
		C14.904,66.59,11.087,69.49,7.582,72.469z"/>
	<path fill="#939FA9" d="M26.708,85.121c-3.059,1.633-5.996,3.391-8.781,5.271L7.582,72.469c3.505-2.979,7.322-5.879,11.386-8.611
		l-1.066-2.934c-4.306,2.709-8.332,5.645-12.073,8.672c-0.22,0.178-0.437,0.357-0.657,0.533c-0.046-0.006-0.093-0.016-0.142-0.016
		c-1.02,0-1.848,0.83-1.848,1.848c0,0.922,0.677,1.682,1.56,1.818L14.917,91.41c-0.126,0.25-0.207,0.531-0.207,0.83
		c0,1.02,0.829,1.85,1.85,1.85c0.838,0,1.535-0.559,1.763-1.322c0.237-0.156,0.467-0.311,0.71-0.461
		c2.725-1.717,5.576-3.326,8.539-4.809L26.708,85.121z"/>
	<path fill="#F0E6D1" d="M162.42,72.469l-10.35,17.924c-2.783-1.881-5.721-3.639-8.783-5.271l7.744-21.264
		C155.092,66.59,158.91,69.49,162.42,72.469z"/>
	<path fill="#939FA9" d="M143.287,85.121c3.062,1.633,6,3.391,8.783,5.271l10.35-17.924c-3.51-2.979-7.328-5.879-11.389-8.611
		l1.064-2.934c4.309,2.709,8.332,5.645,12.074,8.672c0.221,0.178,0.439,0.357,0.66,0.533c0.045-0.006,0.088-0.016,0.139-0.016
		c1.02,0,1.85,0.83,1.85,1.848c0,0.922-0.676,1.682-1.557,1.818l-10.18,17.631c0.125,0.25,0.203,0.531,0.203,0.83
		c0,1.02-0.826,1.85-1.848,1.85c-0.838,0-1.533-0.559-1.762-1.322c-0.24-0.156-0.471-0.311-0.709-0.461
		c-2.725-1.717-5.578-3.326-8.541-4.809L143.287,85.121z"/>
	<path fill="#B57A4C" d="M128.686,36.258l1.09-0.445c2.393-1.199,4.018-3.513,4.018-6.169c0-2.341-1.205-4.507-3.207-5.693
		c-0.662-0.394-1.936-0.917-2.861-1.181c-7.156-2.762-28.482-7.514-35.377-8.916c-5.977-0.581-3.391-8.303-7.005-8.303
		c-3.729,0-1,6.815-6.646,8.303c-7.071,1.454-29.5,6.492-36.017,9.225c-0.104,0.046-0.217,0.087-0.314,0.131
		c-0.53,0.217-1.042,0.44-1.542,0.662c-2.149,1.252-3.576,3.438-3.576,5.932c0,2.646,1.609,4.949,3.988,6.156l0.738,0.33
		c-0.146,6.06-2.351,11.609-5.953,15.97c0,0,1.941,11.033,4.172,15.988c4.906,20.484,23.328,35.709,45.315,35.709
		c21.967,0,40.375-15.201,45.303-35.66c2.191-4.854,3.629-10.119,4.156-15.651C133.193,50.584,128.936,42.931,128.686,36.258z"/>
	<path fill="#F0E6D1" d="M49.668,82.756c7.902,10.99,20.788,18.156,35.358,18.156c14.593,0,27.498-7.186,35.394-18.205
		c-11.1-2.795-22.955-4.32-35.278-4.32C72.741,78.387,60.821,79.928,49.668,82.756z"/>
	<path fill="#939FA9" d="M150.051,56.348c-7.125-3.944-16.238-6.342-21.855-7.981c-13.207-3.849-28.268-6.569-43.053-6.569
		c-14.888,0-28.601,2.541-42.101,6.296c-8.386,2.336-16.25,4.874-23.352,8.82c-2.281,1.238-2.365,2.055-2.155,3.293
		c0.058,0.336,0.754,2.348,0.754,2.348l10.033,27.564c6.704-2.992,13.852-5.463,21.346-7.363
		c11.153-2.828,23.073-4.369,35.474-4.369c12.323,0,24.178,1.525,35.278,4.32c7.477,1.881,14.609,4.332,21.303,7.309l9.996-27.479
		c0,0,0.828-1.856,0.828-2.437C152.547,58.725,151.988,57.41,150.051,56.348z"/>
	<path fill="#F0E6D1" d="M148.039,59.643c0,0-26.592-14.31-63.279-14.31c-36.69,0-62.382,14.31-62.382,14.31l8.828,25.459
		c0,0,21.826-9.242,53.772-9.242c31.951,0,54.027,9.242,54.027,9.242L148.039,59.643z"/>
	<path fill="#B57A4C" d="M32.233,82.158c0,0,22.67-8.457,52.809-8.457c30.142,0,52.73,8.457,52.73,8.457l7.527-21.234
		c0,0-25.459-14.207-60.276-14.207c-34.771,0-60.385,12.926-60.385,12.926L32.233,82.158z"/>
	<g>
		<path fill="#4F3F2B" d="M78.056,97.775l-0.498,0.594l-2.086-0.756l0.035-0.1c0.819-0.334,1.416-0.633,1.794-0.898
			c0.376-0.262,0.616-0.541,0.726-0.836c0.081-0.227,0.08-0.436-0.005-0.627c-0.084-0.195-0.222-0.326-0.411-0.395
			c-0.175-0.066-0.35-0.068-0.525-0.018c-0.176,0.049-0.332,0.162-0.468,0.334l-0.098-0.033c0.162-0.307,0.36-0.512,0.605-0.621
			c0.243-0.107,0.498-0.109,0.763-0.014c0.29,0.105,0.496,0.285,0.623,0.539c0.124,0.254,0.141,0.504,0.052,0.752
			c-0.067,0.182-0.173,0.344-0.323,0.492c-0.229,0.234-0.547,0.459-0.948,0.668c-0.604,0.316-0.976,0.502-1.121,0.562l0.925,0.334
			c0.186,0.068,0.322,0.107,0.402,0.123c0.081,0.016,0.158,0.012,0.236-0.01c0.075-0.021,0.148-0.062,0.222-0.125L78.056,97.775z"/>
		<path fill="#4F3F2B" d="M81.277,97.197c0.021-0.43,0.106-0.795,0.251-1.098c0.142-0.301,0.327-0.521,0.553-0.66
			c0.17-0.109,0.344-0.164,0.522-0.154c0.289,0.016,0.54,0.176,0.751,0.48c0.27,0.381,0.384,0.879,0.352,1.504
			c-0.024,0.434-0.106,0.803-0.248,1.1c-0.141,0.299-0.314,0.512-0.516,0.639c-0.206,0.125-0.398,0.186-0.577,0.176
			c-0.355-0.025-0.644-0.248-0.862-0.682C81.326,98.135,81.247,97.701,81.277,97.197z M81.811,97.295
			c-0.025,0.518,0.016,0.945,0.126,1.277c0.091,0.281,0.241,0.426,0.449,0.436c0.097,0.006,0.206-0.031,0.317-0.113
			c0.113-0.086,0.202-0.23,0.269-0.441c0.102-0.314,0.165-0.758,0.2-1.336c0.021-0.43-0.004-0.785-0.078-1.08
			c-0.057-0.213-0.134-0.363-0.234-0.463c-0.073-0.064-0.163-0.102-0.269-0.107c-0.125-0.006-0.24,0.045-0.345,0.152
			c-0.141,0.146-0.242,0.379-0.311,0.707C81.871,96.654,81.829,96.979,81.811,97.295z"/>
		<path fill="#4F3F2B" d="M86.408,97.217c-0.049-0.426-0.027-0.801,0.064-1.125c0.094-0.322,0.238-0.568,0.436-0.744
			c0.15-0.141,0.314-0.217,0.486-0.238c0.289-0.035,0.566,0.082,0.828,0.348c0.326,0.328,0.521,0.803,0.596,1.424
			c0.047,0.434,0.027,0.811-0.064,1.123c-0.09,0.32-0.223,0.557-0.4,0.717c-0.18,0.16-0.361,0.248-0.539,0.27
			c-0.355,0.041-0.678-0.133-0.961-0.529C86.615,98.131,86.465,97.717,86.408,97.217z M86.951,97.223
			c0.061,0.514,0.174,0.926,0.336,1.236c0.137,0.264,0.311,0.381,0.518,0.359c0.1-0.014,0.197-0.07,0.295-0.168
			c0.096-0.105,0.158-0.262,0.191-0.479c0.047-0.326,0.037-0.777-0.027-1.354c-0.049-0.422-0.135-0.773-0.258-1.047
			c-0.09-0.205-0.193-0.346-0.307-0.422c-0.08-0.051-0.178-0.072-0.281-0.059c-0.127,0.014-0.232,0.084-0.316,0.205
			c-0.117,0.17-0.176,0.418-0.189,0.752C86.906,96.582,86.918,96.904,86.951,97.223z"/>
		<g>
			<path fill="#4F3F2B" d="M91.582,98.234c-0.004-0.016-0.012-0.035-0.021-0.049c-0.004-0.014-0.008-0.033-0.008-0.051
				c0.309-0.098,0.564-0.205,0.762-0.326c0.199-0.117,0.355-0.275,0.475-0.471c0.082-0.131,0.129-0.283,0.146-0.451
				c0.018-0.174,0.008-0.357-0.018-0.562c-0.072,0.092-0.164,0.17-0.279,0.244c-0.111,0.072-0.221,0.125-0.326,0.162
				c-0.297,0.1-0.553,0.086-0.768-0.037c-0.213-0.115-0.371-0.326-0.469-0.625c-0.053-0.158-0.076-0.318-0.07-0.477
				c0.008-0.16,0.043-0.309,0.104-0.445c0.062-0.141,0.154-0.266,0.268-0.375c0.119-0.107,0.26-0.188,0.424-0.242
				c0.162-0.057,0.312-0.07,0.457-0.043c0.145,0.029,0.277,0.086,0.398,0.18c0.115,0.088,0.225,0.205,0.32,0.352
				c0.09,0.143,0.172,0.309,0.232,0.488c0.066,0.195,0.109,0.381,0.145,0.555c0.031,0.172,0.039,0.342,0.035,0.504
				c-0.004,0.16-0.033,0.316-0.078,0.467c-0.047,0.158-0.113,0.311-0.201,0.463c-0.104,0.172-0.238,0.328-0.414,0.465
				c-0.172,0.137-0.387,0.248-0.641,0.334c-0.123,0.041-0.227,0.055-0.316,0.039C91.65,98.316,91.6,98.285,91.582,98.234z
				 M91.469,95.766c0.029,0.094,0.076,0.184,0.139,0.27c0.055,0.086,0.125,0.154,0.203,0.213c0.084,0.061,0.17,0.104,0.264,0.123
				c0.098,0.025,0.193,0.018,0.293-0.014c0.1-0.037,0.195-0.084,0.271-0.15c0.08-0.062,0.141-0.145,0.191-0.234
				c-0.041-0.152-0.1-0.299-0.172-0.445c-0.068-0.146-0.15-0.277-0.244-0.381c-0.09-0.107-0.188-0.189-0.301-0.242
				c-0.107-0.051-0.219-0.061-0.34-0.02c-0.082,0.027-0.152,0.072-0.203,0.135c-0.055,0.064-0.094,0.135-0.121,0.215
				c-0.023,0.078-0.035,0.166-0.029,0.26C91.424,95.588,91.439,95.678,91.469,95.766z"/>
		</g>
	</g>
	<g>
		<path fill="#4F3F2B" d="M71.425,90.162l-1.42-0.32l-0.377,0.525c-0.097,0.123-0.152,0.223-0.167,0.295
			c-0.013,0.057,0.003,0.111,0.045,0.162c0.043,0.059,0.154,0.109,0.33,0.162l-0.021,0.102l-1.159-0.264l0.024-0.096
			c0.156,0.006,0.263-0.01,0.319-0.043c0.11-0.064,0.255-0.219,0.422-0.457l1.976-2.729l0.098,0.023l0.584,3.346
			c0.046,0.264,0.102,0.443,0.167,0.535c0.071,0.09,0.179,0.16,0.326,0.201l-0.021,0.105l-1.449-0.336l0.023-0.096
			c0.147,0.025,0.254,0.025,0.312-0.006c0.062-0.027,0.098-0.074,0.112-0.135c0.019-0.078,0.009-0.211-0.024-0.396L71.425,90.162z
			 M71.396,89.945l-0.289-1.619l-0.971,1.334L71.396,89.945z"/>
		<path fill="#4F3F2B" d="M75.515,89.543l-0.087,0.564c0.273-0.342,0.517-0.5,0.734-0.463c0.104,0.012,0.181,0.057,0.236,0.129
			c0.055,0.07,0.078,0.145,0.067,0.227c-0.013,0.072-0.048,0.133-0.099,0.172c-0.057,0.041-0.117,0.057-0.184,0.043
			c-0.065-0.01-0.133-0.051-0.2-0.123c-0.07-0.076-0.125-0.115-0.163-0.123c-0.032-0.006-0.071,0.01-0.115,0.037
			c-0.094,0.062-0.198,0.172-0.312,0.33l-0.187,1.207c-0.021,0.137-0.019,0.242,0.008,0.322c0.014,0.051,0.051,0.102,0.106,0.141
			c0.053,0.045,0.14,0.072,0.25,0.088l-0.014,0.1l-1.284-0.197l0.014-0.098c0.128,0.018,0.225,0.016,0.292-0.016
			c0.052-0.021,0.092-0.064,0.117-0.129c0.016-0.027,0.034-0.111,0.055-0.26l0.152-0.979c0.048-0.287,0.065-0.463,0.062-0.52
			c-0.005-0.059-0.014-0.105-0.045-0.131c-0.028-0.033-0.068-0.051-0.113-0.059c-0.058-0.008-0.124-0.004-0.196,0.012l-0.019-0.102
			l0.807-0.191L75.515,89.543z"/>
		<path fill="#4F3F2B" d="M78.873,89.201l-0.084,0.83l0.593,0.061l-0.021,0.193l-0.59-0.061l-0.165,1.639
			c-0.012,0.162-0.003,0.277,0.039,0.338c0.042,0.062,0.1,0.098,0.17,0.105c0.06,0.006,0.12-0.008,0.181-0.037
			c0.059-0.035,0.112-0.086,0.15-0.158l0.106,0.01c-0.085,0.172-0.185,0.301-0.314,0.381c-0.126,0.076-0.252,0.109-0.375,0.1
			c-0.086-0.006-0.168-0.039-0.243-0.094c-0.075-0.057-0.129-0.127-0.156-0.217c-0.032-0.094-0.041-0.229-0.018-0.41l0.166-1.703
			l-0.402-0.039l0.012-0.094c0.105-0.027,0.212-0.084,0.331-0.168c0.116-0.088,0.22-0.193,0.318-0.32
			c0.046-0.064,0.123-0.188,0.214-0.365L78.873,89.201z"/>
		<path fill="#4F3F2B" d="M81.462,91.188c-0.012,0.377,0.068,0.678,0.245,0.896c0.177,0.221,0.393,0.336,0.64,0.342
			c0.167,0.004,0.312-0.033,0.438-0.119c0.126-0.088,0.234-0.24,0.324-0.459l0.085,0.057c-0.048,0.252-0.167,0.48-0.361,0.68
			c-0.193,0.205-0.431,0.299-0.715,0.291c-0.303-0.014-0.561-0.141-0.769-0.383c-0.208-0.244-0.307-0.57-0.293-0.973
			c0.016-0.432,0.139-0.77,0.368-1.006c0.233-0.232,0.519-0.346,0.854-0.332c0.284,0.01,0.515,0.109,0.693,0.303
			c0.172,0.193,0.256,0.447,0.247,0.764L81.462,91.188z M81.467,91.027l1.177,0.041c-0.003-0.164-0.019-0.279-0.045-0.348
			c-0.042-0.102-0.109-0.186-0.199-0.25c-0.092-0.062-0.182-0.098-0.282-0.098c-0.157-0.006-0.294,0.047-0.421,0.164
			C81.572,90.652,81.495,90.814,81.467,91.027z"/>
		<path fill="#4F3F2B" d="M86.664,90.137l0.037,0.865l-0.09,0.004c-0.082-0.268-0.182-0.451-0.294-0.543
			c-0.114-0.094-0.255-0.137-0.428-0.133c-0.127,0.008-0.229,0.045-0.31,0.117c-0.075,0.072-0.113,0.15-0.109,0.232
			c0.004,0.104,0.038,0.193,0.097,0.262c0.065,0.076,0.184,0.15,0.366,0.227l0.41,0.182c0.385,0.168,0.584,0.398,0.594,0.701
			c0.01,0.23-0.072,0.416-0.238,0.568c-0.172,0.152-0.365,0.227-0.58,0.238c-0.153,0.004-0.328-0.018-0.533-0.064
			c-0.062-0.016-0.114-0.021-0.154-0.02c-0.038,0-0.069,0.025-0.094,0.072l-0.089,0.01l-0.04-0.908l0.089-0.002
			c0.064,0.256,0.17,0.447,0.323,0.57c0.149,0.125,0.319,0.186,0.498,0.18c0.129-0.01,0.23-0.049,0.305-0.131
			c0.078-0.074,0.117-0.168,0.111-0.273c-0.006-0.127-0.057-0.234-0.146-0.316c-0.095-0.082-0.28-0.186-0.551-0.305
			c-0.274-0.123-0.452-0.236-0.539-0.34c-0.089-0.105-0.137-0.236-0.139-0.396c-0.012-0.205,0.05-0.381,0.189-0.529
			c0.136-0.148,0.317-0.227,0.546-0.232c0.101-0.004,0.222,0.01,0.369,0.043c0.092,0.025,0.155,0.039,0.186,0.037
			c0.027,0,0.053-0.012,0.07-0.023c0.016-0.014,0.033-0.041,0.055-0.084L86.664,90.137z"/>
		<path fill="#4F3F2B" d="M90.357,92.051c-0.236,0.23-0.381,0.367-0.447,0.406c-0.094,0.059-0.195,0.092-0.307,0.105
			c-0.174,0.021-0.32-0.021-0.451-0.123c-0.127-0.107-0.201-0.258-0.225-0.455c-0.016-0.121,0-0.234,0.043-0.326
			c0.061-0.139,0.174-0.27,0.348-0.398c0.172-0.133,0.467-0.305,0.881-0.518l-0.014-0.1c-0.027-0.252-0.09-0.418-0.182-0.504
			c-0.094-0.078-0.211-0.117-0.367-0.094c-0.111,0.012-0.199,0.053-0.262,0.123c-0.064,0.072-0.09,0.146-0.078,0.229l0.023,0.158
			c0.012,0.086-0.002,0.154-0.037,0.203c-0.039,0.053-0.094,0.08-0.16,0.09c-0.07,0.008-0.127-0.01-0.176-0.051
			c-0.055-0.045-0.082-0.105-0.09-0.186c-0.018-0.158,0.043-0.314,0.189-0.467s0.365-0.244,0.658-0.279
			c0.221-0.027,0.408-0.014,0.562,0.047c0.113,0.041,0.205,0.123,0.273,0.234c0.041,0.078,0.076,0.238,0.105,0.482l0.105,0.855
			c0.027,0.238,0.051,0.383,0.066,0.438c0.016,0.053,0.035,0.09,0.061,0.104c0.021,0.016,0.047,0.025,0.072,0.018
			c0.033-0.002,0.055-0.01,0.072-0.027c0.039-0.029,0.105-0.102,0.205-0.227l0.02,0.156c-0.176,0.297-0.357,0.457-0.543,0.479
			c-0.088,0.016-0.164-0.008-0.225-0.064C90.418,92.307,90.377,92.201,90.357,92.051z M90.334,91.867l-0.115-0.957
			c-0.262,0.145-0.43,0.244-0.508,0.303c-0.137,0.096-0.227,0.189-0.279,0.289c-0.051,0.096-0.072,0.193-0.062,0.299
			c0.02,0.133,0.074,0.234,0.162,0.316c0.088,0.074,0.184,0.109,0.285,0.096C89.959,92.197,90.129,92.084,90.334,91.867z"/>
		<path fill="#4F3F2B" d="M93.4,89.818c0.219-0.408,0.457-0.641,0.725-0.699c0.135-0.027,0.258-0.02,0.373,0.027
			c0.109,0.045,0.211,0.139,0.305,0.283c0.059,0.105,0.113,0.266,0.156,0.49l0.23,1.059c0.031,0.158,0.066,0.26,0.104,0.312
			c0.033,0.041,0.07,0.07,0.119,0.084c0.051,0.016,0.135,0.014,0.254-0.01l0.02,0.094l-1.229,0.26l-0.023-0.096l0.057-0.012
			c0.113-0.023,0.189-0.057,0.227-0.1c0.039-0.047,0.064-0.107,0.066-0.18c0.004-0.031-0.012-0.117-0.043-0.258l-0.213-1.021
			c-0.047-0.223-0.113-0.379-0.191-0.471c-0.084-0.09-0.193-0.119-0.332-0.09c-0.217,0.047-0.408,0.209-0.57,0.49l0.277,1.309
			c0.037,0.168,0.068,0.271,0.094,0.307c0.037,0.047,0.082,0.078,0.133,0.092c0.049,0.014,0.141,0.008,0.277-0.02l0.02,0.096
			l-1.229,0.26l-0.02-0.094l0.055-0.016c0.125-0.025,0.205-0.072,0.236-0.15c0.029-0.07,0.025-0.197-0.014-0.381l-0.191-0.918
			c-0.066-0.303-0.109-0.484-0.137-0.545s-0.059-0.104-0.09-0.119c-0.035-0.018-0.074-0.02-0.123-0.012
			c-0.049,0.012-0.105,0.035-0.172,0.076l-0.061-0.084l0.686-0.465l0.115-0.021L93.4,89.818z"/>
		<path fill="#4F3F2B" d="M98.781,90.191c-0.189,0.271-0.309,0.43-0.363,0.479c-0.082,0.074-0.178,0.129-0.287,0.162
			c-0.164,0.053-0.32,0.041-0.463-0.043c-0.146-0.078-0.248-0.211-0.307-0.402c-0.037-0.117-0.043-0.229-0.018-0.326
			c0.035-0.146,0.123-0.295,0.271-0.459c0.148-0.162,0.404-0.385,0.77-0.668l-0.027-0.098c-0.078-0.24-0.17-0.393-0.271-0.457
			c-0.105-0.066-0.23-0.076-0.375-0.029c-0.113,0.035-0.189,0.09-0.236,0.17c-0.047,0.084-0.064,0.162-0.037,0.24l0.055,0.15
			c0.023,0.082,0.021,0.15-0.006,0.209c-0.029,0.059-0.076,0.096-0.141,0.115c-0.066,0.02-0.127,0.014-0.182-0.018
			c-0.055-0.033-0.096-0.09-0.123-0.168c-0.049-0.154-0.01-0.314,0.105-0.49c0.113-0.174,0.311-0.309,0.592-0.4
			c0.217-0.061,0.402-0.084,0.562-0.053c0.121,0.02,0.225,0.084,0.311,0.184c0.055,0.064,0.119,0.217,0.193,0.451l0.256,0.822
			c0.076,0.23,0.123,0.369,0.148,0.42c0.023,0.049,0.051,0.08,0.078,0.092c0.025,0.01,0.053,0.012,0.08,0.002
			c0.027-0.008,0.049-0.023,0.062-0.041c0.033-0.033,0.086-0.121,0.16-0.258l0.043,0.146c-0.117,0.328-0.264,0.516-0.441,0.574
			c-0.086,0.027-0.164,0.016-0.236-0.023C98.885,90.428,98.828,90.336,98.781,90.191z M98.727,90.02l-0.289-0.926
			c-0.232,0.188-0.383,0.32-0.445,0.389c-0.113,0.121-0.191,0.234-0.223,0.336c-0.031,0.105-0.033,0.209-0.004,0.305
			c0.041,0.131,0.113,0.221,0.215,0.283c0.1,0.061,0.203,0.076,0.299,0.045C98.412,90.408,98.564,90.264,98.727,90.02z"/>
		<path fill="#4F3F2B" d="M100.746,85.627l1.346,3.086c0.066,0.148,0.117,0.242,0.16,0.279c0.039,0.037,0.09,0.061,0.143,0.064
			c0.057,0.004,0.145-0.018,0.266-0.072l0.039,0.092l-1.141,0.496l-0.039-0.096c0.105-0.041,0.178-0.084,0.203-0.125
			c0.029-0.035,0.043-0.088,0.041-0.146c0-0.059-0.029-0.158-0.096-0.305l-0.92-2.117c-0.115-0.26-0.189-0.42-0.23-0.475
			c-0.037-0.055-0.074-0.088-0.107-0.096c-0.037-0.016-0.074-0.01-0.109,0.006c-0.049,0.021-0.1,0.057-0.152,0.117l-0.084-0.074
			l0.566-0.588L100.746,85.627z"/>
	</g>
	<path fill="#939FA9" d="M12.319,68.369l-3.567,2.979c0,0,4.092-2.002,4.374,1.746c0,0,0.094,2.24-2.885,1.336
		c0,0,3.866,2.893,4.517-1.029c0,0,0.002-1.553-1.13-2.975c0,0-0.768-2.361,1.142-2.285c0,0,1.754,0.078,0.609,3.273
		c0,0-0.673,2.498,1.768,3.73c0,0,2.847,1.35,3.462-2.918c0,0-1.384,2.561-3.113,1.602c0,0-1.317-1.094,0.039-3.197
		c0,0,1.028-2.955-0.723-5.596L12.319,68.369z"/>
	<path fill="#939FA9" d="M22.972,88.492l3.565-2.977c0,0-4.089,2.002-4.372-1.744c0,0-0.092-2.244,2.883-1.338
		c0,0-3.865-2.891-4.517,1.027c0,0-0.003,1.557,1.128,2.977c0,0,0.773,2.363-1.141,2.283c0,0-1.75-0.078-0.607-3.271
		c0,0,0.672-2.5-1.765-3.732c0,0-2.851-1.348-3.465,2.922c0,0,1.385-2.562,3.112-1.604c0,0,1.318,1.094-0.04,3.197
		c0,0-1.025,2.955,0.724,5.596L22.972,88.492z"/>
	<path fill="#939FA9" d="M157.873,68.369l3.566,2.979c0,0-4.088-2.002-4.375,1.746c0,0-0.092,2.24,2.887,1.336
		c0,0-3.869,2.893-4.518-1.029c0,0,0-1.553,1.131-2.975c0,0,0.77-2.361-1.145-2.285c0,0-1.75,0.078-0.605,3.273
		c0,0,0.674,2.498-1.766,3.73c0,0-2.848,1.35-3.467-2.918c0,0,1.387,2.561,3.113,1.602c0,0,1.318-1.094-0.039-3.197
		c0,0-1.025-2.955,0.725-5.596L157.873,68.369z"/>
	<path fill="#939FA9" d="M147.221,88.492l-3.57-2.977c0,0,4.094,2.002,4.379-1.744c0,0,0.092-2.244-2.889-1.338
		c0,0,3.867-2.891,4.518,1.027c0,0,0,1.557-1.127,2.977c0,0-0.773,2.363,1.139,2.283c0,0,1.756-0.078,0.609-3.271
		c0,0-0.672-2.5,1.766-3.732c0,0,2.852-1.348,3.465,2.922c0,0-1.381-2.562-3.113-1.604c0,0-1.318,1.094,0.041,3.197
		c0,0,1.025,2.955-0.725,5.596L147.221,88.492z"/>
	<path fill="#939FA9" d="M10.584,80.379c0,0,0.962-3.012,4.313-2.941c0,0,5.805,2.053,6.364-2.328c0,0-0.334,5.203-4.208,5.27
		c0,0-5.084-1.23-4.407,1.779L10.584,80.379z"/>
	<path fill="#939FA9" d="M159.961,80.379c0,0-0.969-3.012-4.318-2.941c0,0-5.799,2.053-6.359-2.328c0,0,0.332,5.203,4.205,5.27
		c0,0,5.08-1.23,4.408,1.779L159.961,80.379z"/>
	<polygon fill="#B57A4C" points="83.177,84.926 84.524,85.131 83.543,86.076 83.763,87.42 82.562,86.775 81.35,87.402 
		81.591,86.062 80.622,85.102 81.972,84.914 82.584,83.699 	"/>
	<polygon fill="#B57A4C" points="89.432,84.926 90.779,85.131 89.795,86.076 90.014,87.42 88.814,86.775 87.604,87.402 
		87.844,86.062 86.875,85.102 88.229,84.914 88.84,83.699 	"/>
	<polygon fill="#B57A4C" points="86.297,81.012 87.641,81.215 86.66,82.158 86.881,83.504 85.682,82.861 84.468,83.488 
		84.709,82.145 83.739,81.184 85.091,80.998 85.702,79.781 	"/>
	<g>
		<path fill="#61605D" d="M30.495,62.023l4.098-1.418c1.245-0.432,2.251-0.65,3.014-0.659c0.764-0.009,1.518,0.304,2.259,0.944
			c0.745,0.639,1.32,1.549,1.729,2.73c0.393,1.137,0.53,2.145,0.412,3.014c-0.117,0.871-0.454,1.59-1.002,2.148
			c-0.55,0.561-1.515,1.08-2.891,1.555l-1.106,0.383l1.984,5.738l-3.129,1.086L30.495,62.023z M34.493,63.455l1.591,4.605
			l0.971-0.338c0.855-0.295,1.332-0.701,1.43-1.219c0.094-0.521,0.025-1.123-0.212-1.816c-0.203-0.586-0.464-1.025-0.78-1.32
			s-0.618-0.451-0.905-0.465c-0.289-0.014-0.666,0.057-1.124,0.221L34.493,63.455z"/>
		<path fill="#61605D" d="M42.938,58.033l3.207-0.829l4.117,15.897l-3.205,0.828L42.938,58.033z"/>
		<path fill="#61605D" d="M59.377,65.117l3.041-0.355c0.218,1.773-0.028,3.291-0.738,4.561c-0.707,1.27-1.808,2.043-3.309,2.322
			c-1.822,0.334-3.349-0.145-4.574-1.445c-1.229-1.297-2.083-3.24-2.559-5.826c-0.485-2.611-0.388-4.74,0.288-6.393
			c0.674-1.646,1.947-2.648,3.811-2.994c3.091-0.57,5.16,1.202,6.204,5.316l-2.932,0.785c-0.523-2.381-1.431-3.456-2.727-3.215
			c-0.679,0.127-1.147,0.613-1.406,1.461c-0.26,0.845-0.184,2.381,0.227,4.605c0.369,1.986,0.805,3.32,1.314,3.998
			c0.504,0.678,1.125,0.945,1.864,0.811C59.066,68.527,59.564,67.318,59.377,65.117z"/>
		<path fill="#61605D" d="M64.088,53.821l3.295-0.307l0.618,6.601l3.604-0.34l-0.616-6.599l3.295-0.308l1.532,16.35l-3.298,0.311
			l-0.627-6.686l-3.602,0.338l0.624,6.682l-3.296,0.309L64.088,53.821z"/>
		<path fill="#61605D" d="M78.796,52.66l3.309-0.021l0.059,9.384c0.008,1.326,0.067,2.246,0.183,2.77
			c0.114,0.518,0.344,0.912,0.697,1.178c0.349,0.266,0.779,0.398,1.287,0.396c0.552-0.004,0.99-0.156,1.31-0.453
			c0.322-0.301,0.519-0.695,0.59-1.184c0.072-0.488,0.104-1.4,0.094-2.73l-0.055-9.386l2.768-0.015l0.057,9.237
			c0.012,1.848-0.078,3.223-0.266,4.131c-0.189,0.906-0.684,1.688-1.479,2.342c-0.791,0.654-1.889,0.986-3.289,0.994
			c-1.308,0.01-2.34-0.223-3.094-0.695c-0.753-0.473-1.291-1.141-1.613-2c-0.322-0.861-0.489-2.383-0.502-4.564L78.796,52.66z"/>
		<path fill="#61605D" d="M96.178,53.056l3.32,0.295l2.848,16.737l-3.375-0.299l-0.451-3.443l-4.225-0.373l-1.037,3.314
			l-3.027-0.266L96.178,53.056z M98.148,63.486l-0.928-6.838l-2.045,6.576L98.148,63.486z"/>
		<path fill="#61605D" d="M106.701,54.165l3.613,0.676l1.938,10.739l1.871-10.03l2.516,0.472l-3.014,16.141l-2.908-0.543
			l-2.332-12.524l-2.184,11.683l-2.518-0.471L106.701,54.165z"/>
		<path fill="#61605D" d="M119.379,56.678l9.035,2.584l-0.848,2.961l-2.963-0.848l-3.67,12.828l-3.188-0.914l3.674-12.824
			l-2.885-0.826L119.379,56.678z"/>
		<path fill="#61605D" d="M131.322,60.271l8.498,3.426l-1.057,2.615l-5.424-2.188l-1.428,3.535l4.219,1.699l-1.053,2.611
			l-4.217-1.701l-1.51,3.748l5.426,2.189l-1.098,2.719l-8.498-3.422L131.322,60.271z"/>
	</g>
	<path fill="#F0E6D1" d="M42.334,48.292c0,0,0.247-3.302,3.048-4.146c0,0,17.991-6.833,40.062-6.833
		c22.067,0,38.923,6.433,39.483,6.624c3.236,1.096,3.006,4.355,3.006,4.355s-22.584-6.493-42.328-6.493
		C64.761,41.799,42.334,48.292,42.334,48.292z"/>
	<g>
		<path fill="#F0E6D1" d="M31.03,60.588l4.1-1.415c1.243-0.433,2.248-0.652,3.012-0.659c0.765-0.013,1.516,0.303,2.259,0.941
			c0.739,0.637,1.319,1.549,1.729,2.729c0.39,1.141,0.528,2.145,0.409,3.018c-0.118,0.871-0.451,1.59-1.001,2.148
			c-0.55,0.557-1.514,1.076-2.89,1.553l-1.106,0.383l1.986,5.742l-3.128,1.082L31.03,60.588z M35.029,62.021l1.592,4.6l0.97-0.332
			c0.854-0.297,1.332-0.703,1.43-1.223c0.097-0.521,0.025-1.123-0.214-1.814c-0.201-0.588-0.459-1.025-0.775-1.32
			c-0.318-0.297-0.623-0.45-0.91-0.465c-0.289-0.014-0.666,0.057-1.124,0.215L35.029,62.021z"/>
		<path fill="#F0E6D1" d="M43.474,56.598l3.203-0.832l4.118,15.9l-3.204,0.83L43.474,56.598z"/>
		<path fill="#F0E6D1" d="M59.912,63.684l3.044-0.355c0.215,1.771-0.032,3.291-0.739,4.559c-0.708,1.27-1.812,2.043-3.31,2.32
			c-1.825,0.336-3.347-0.143-4.576-1.443c-1.23-1.297-2.082-3.242-2.56-5.828c-0.482-2.605-0.386-4.739,0.289-6.391
			c0.673-1.649,1.944-2.646,3.813-2.993c3.09-0.57,5.156,1.201,6.202,5.315l-2.931,0.787c-0.522-2.385-1.432-3.455-2.729-3.216
			c-0.677,0.126-1.149,0.611-1.406,1.459c-0.26,0.847-0.182,2.384,0.229,4.606c0.368,1.988,0.802,3.32,1.311,3.994
			c0.508,0.678,1.13,0.949,1.867,0.814C59.603,67.09,60.103,65.883,59.912,63.684z"/>
		<path fill="#F0E6D1" d="M64.624,52.384l3.296-0.309l0.616,6.604l3.606-0.34l-0.618-6.599l3.296-0.308l1.529,16.351l-3.296,0.307
			l-0.626-6.682l-3.603,0.338l0.624,6.684l-3.297,0.307L64.624,52.384z"/>
		<path fill="#F0E6D1" d="M79.332,51.224l3.31-0.02l0.059,9.384c0.007,1.324,0.067,2.246,0.182,2.766
			c0.114,0.521,0.345,0.914,0.694,1.184c0.353,0.264,0.781,0.398,1.29,0.391c0.553,0,0.989-0.15,1.312-0.449
			c0.32-0.299,0.518-0.691,0.59-1.184c0.07-0.49,0.1-1.4,0.09-2.73l-0.055-9.385l2.771-0.018l0.055,9.243
			c0.012,1.844-0.078,3.221-0.266,4.127c-0.189,0.906-0.684,1.688-1.479,2.342c-0.793,0.654-1.889,0.986-3.287,0.992
			c-1.312,0.008-2.344-0.225-3.095-0.695c-0.755-0.473-1.292-1.137-1.615-1.998s-0.489-2.379-0.501-4.564L79.332,51.224z"/>
		<path fill="#F0E6D1" d="M96.711,51.623l3.32,0.292l2.848,16.737l-3.373-0.297l-0.449-3.447l-4.23-0.371l-1.031,3.312l-3.031-0.266
			L96.711,51.623z M98.682,62.049l-0.926-6.834l-2.045,6.573L98.682,62.049z"/>
		<path fill="#F0E6D1" d="M107.236,52.73l3.613,0.675l1.934,10.739l1.875-10.028l2.518,0.471l-3.016,16.142l-2.908-0.543
			l-2.33-12.527l-2.184,11.684l-2.518-0.469L107.236,52.73z"/>
		<path fill="#F0E6D1" d="M119.92,55.24l9.027,2.586l-0.848,2.961l-2.959-0.848l-3.674,12.828l-3.184-0.912l3.674-12.828
			l-2.889-0.825L119.92,55.24z"/>
		<path fill="#F0E6D1" d="M131.855,58.838l8.498,3.424l-1.053,2.611l-5.428-2.188l-1.424,3.537l4.217,1.699l-1.051,2.611
			l-4.217-1.697l-1.512,3.748l5.424,2.186l-1.098,2.725l-8.494-3.426L131.855,58.838z"/>
	</g>
	<path fill="#F0E6D1" d="M130.553,29.54c0-2.242-1.576-4.116-3.68-4.583c0.008-0.009,0.018-0.015,0.018-0.015
		s-16.93-6.22-34.459-7.766c-1.463,0-2.535-1.128-3.418-2.291c-1.578-2.082-2.107-4.813-3.671-4.813c-1.564,0-2.216,2.736-3.8,4.819
		c-0.8,1.053-2.037,2.221-3.166,2.221c-17.742,1.417-34.849,7.83-34.849,7.83s0.016,0.029,0.035,0.079
		c-1.978,0.555-3.429,2.366-3.429,4.519c0,2.523,1.993,4.577,4.488,4.686c-0.005,7.012-1.094,9.195-1.094,9.195
		s18.537-7.904,41.451-7.904c25.795,0,41.912,7.904,41.912,7.904s-1.217-2.703-1.326-9.199c0.094,0.006,0.191,0.014,0.287,0.014
		C128.449,34.236,130.553,32.133,130.553,29.54z"/>
	<g>
		<path fill="#4F3F2B" d="M52.651,33.49l2.253-0.544c0.286,1.207,0.205,2.285-0.236,3.234c-0.443,0.948-1.216,1.594-2.318,1.932
			c-1.34,0.412-2.518,0.228-3.525-0.551c-1.01-0.778-1.782-2.042-2.322-3.789c-0.541-1.762-0.616-3.248-0.224-4.459
			c0.389-1.209,1.273-2.026,2.645-2.451c2.276-0.697,3.947,0.327,5.013,3.076l-2.14,0.835c-0.557-1.602-1.312-2.256-2.264-1.963
			c-0.499,0.155-0.819,0.538-0.954,1.151c-0.135,0.612,0.029,1.671,0.492,3.17c0.411,1.342,0.832,2.221,1.257,2.644
			c0.426,0.419,0.912,0.543,1.453,0.377C52.658,35.884,52.946,34.998,52.651,33.49z"/>
		<path fill="#4F3F2B" d="M57.941,24.621l6.794-1.389l0.395,1.914l-4.341,0.887l0.532,2.596l3.374-0.691l0.392,1.915l-3.372,0.691
			l0.562,2.751l4.337-0.889l0.41,1.999l-6.794,1.39L57.941,24.621z"/>
		<path fill="#4F3F2B" d="M69.835,22.451l3.567-0.367c0.691-0.072,1.227-0.094,1.602-0.069c0.374,0.025,0.764,0.158,1.17,0.4
			c0.407,0.24,0.741,0.593,1.004,1.055c0.263,0.464,0.425,0.995,0.486,1.599c0.149,1.421-0.279,2.473-1.284,3.16l2.598,4.745
			l-2.715,0.28l-1.98-4.332l-1.245,0.129l0.463,4.487l-2.493,0.258L69.835,22.451z M72.519,24.031l0.331,3.183l1.096-0.114
			c0.975-0.101,1.407-0.697,1.292-1.79c-0.037-0.376-0.142-0.677-0.31-0.903c-0.168-0.227-0.353-0.372-0.553-0.438
			s-0.486-0.081-0.859-0.044L72.519,24.031z"/>
		<path fill="#4F3F2B" d="M82.013,21.433l2.63,0.035l1.64,8.718l1.926-8.672l2.15,0.027l-2.945,11.427l-2.805-0.095L82.013,21.433z"
			/>
		<path fill="#4F3F2B" d="M95.203,21.944l6.883,0.835l-0.236,1.943l-4.396-0.534l-0.318,2.629l3.416,0.416l-0.236,1.94l-3.418-0.414
			l-0.34,2.786l4.398,0.534l-0.248,2.025l-6.887-0.84L95.203,21.944z"/>
		<path fill="#4F3F2B" d="M106.451,23.554l7.154,1.587l-0.389,1.738l-6.299,6.372l4.803,1.068l-0.445,1.99l-7.637-1.696l0.373-1.708
			l6.34-6.398l-4.344-0.965L106.451,23.554z"/>
		<path fill="#4F3F2B" d="M120.57,27.185l2.393,0.804l-0.533,11.85l-2.432-0.814l0.211-2.415l-3.049-1.02l-1.277,2.057l-2.184-0.733
			L120.57,27.185z M120.381,34.605l0.395-4.797l-2.535,4.078L120.381,34.605z"/>
	</g>
	<g>
		<path fill="#FFFFFF" d="M53.178,32.979l2.253-0.543c0.285,1.206,0.204,2.283-0.237,3.235c-0.442,0.948-1.218,1.591-2.317,1.931
			c-1.342,0.413-2.516,0.229-3.529-0.55c-1.007-0.779-1.78-2.042-2.318-3.787c-0.539-1.764-0.618-3.252-0.226-4.459
			c0.392-1.211,1.274-2.029,2.647-2.45c2.273-0.7,3.944,0.324,5.011,3.073l-2.141,0.834c-0.555-1.599-1.309-2.255-2.263-1.961
			c-0.498,0.152-0.818,0.537-0.953,1.15c-0.135,0.612,0.029,1.67,0.492,3.17c0.413,1.343,0.832,2.223,1.257,2.644
			c0.426,0.419,0.912,0.545,1.453,0.377C53.183,35.374,53.472,34.487,53.178,32.979z"/>
		<path fill="#FFFFFF" d="M58.466,24.111l6.795-1.392l0.393,1.917l-4.338,0.886l0.533,2.598l3.37-0.691l0.393,1.915l-3.373,0.691
			l0.564,2.75l4.338-0.887l0.409,1.998l-6.795,1.391L58.466,24.111z"/>
		<path fill="#FFFFFF" d="M70.362,21.94l3.566-0.368c0.69-0.072,1.226-0.094,1.601-0.067c0.377,0.024,0.767,0.158,1.172,0.398
			c0.406,0.241,0.74,0.593,1.004,1.057c0.261,0.462,0.425,0.994,0.487,1.599c0.146,1.419-0.281,2.47-1.285,3.159l2.599,4.743
			l-2.716,0.281l-1.979-4.331l-1.245,0.129l0.464,4.486l-2.491,0.26L70.362,21.94z M73.045,23.52l0.329,3.185l1.097-0.113
			c0.973-0.101,1.408-0.697,1.293-1.79c-0.038-0.376-0.144-0.679-0.312-0.905c-0.167-0.226-0.352-0.372-0.553-0.437
			c-0.201-0.066-0.486-0.08-0.858-0.042L73.045,23.52z"/>
		<path fill="#FFFFFF" d="M82.541,20.924l2.629,0.032l1.641,8.719l1.924-8.673l2.154,0.029l-2.949,11.427l-2.805-0.094
			L82.541,20.924z"/>
		<path fill="#FFFFFF" d="M95.729,21.433l6.887,0.837l-0.24,1.942l-4.395-0.535l-0.32,2.628l3.416,0.416l-0.236,1.942l-3.418-0.416
			l-0.338,2.786l4.398,0.535l-0.248,2.025l-6.885-0.839L95.729,21.433z"/>
		<path fill="#FFFFFF" d="M106.977,23.043l7.156,1.59l-0.389,1.736l-6.299,6.374l4.803,1.067l-0.443,1.988l-7.641-1.696l0.373-1.705
			l6.342-6.398l-4.344-0.965L106.977,23.043z"/>
		<path fill="#FFFFFF" d="M121.096,26.676l2.393,0.801l-0.531,11.85l-2.43-0.814l0.207-2.415l-3.047-1.02l-1.279,2.058l-2.184-0.732
			L121.096,26.676z M120.906,34.095l0.396-4.797l-2.535,4.078L120.906,34.095z"/>
	</g>
	<g>
		<path fill="#4F3F2B" d="M53.594,32.47l2.254-0.544c0.287,1.208,0.205,2.284-0.237,3.234c-0.439,0.95-1.214,1.593-2.317,1.932
			c-1.342,0.411-2.517,0.229-3.527-0.55s-1.782-2.043-2.317-3.788c-0.544-1.763-0.618-3.249-0.228-4.46
			c0.391-1.21,1.272-2.024,2.646-2.449c2.273-0.699,3.944,0.326,5.01,3.074l-2.136,0.834c-0.558-1.6-1.315-2.255-2.268-1.962
			c-0.499,0.155-0.815,0.537-0.95,1.149c-0.136,0.613,0.027,1.672,0.49,3.173c0.41,1.343,0.833,2.221,1.257,2.642
			c0.425,0.419,0.91,0.546,1.455,0.378C53.6,34.865,53.889,33.978,53.594,32.47z"/>
		<path fill="#4F3F2B" d="M58.887,23.603l6.791-1.392l0.393,1.915l-4.339,0.889l0.532,2.595l3.372-0.689l0.393,1.915l-3.37,0.69
			l0.562,2.751l4.337-0.89l0.41,1.999l-6.795,1.389L58.887,23.603z"/>
		<path fill="#4F3F2B" d="M70.779,21.433l3.566-0.371c0.693-0.07,1.228-0.093,1.602-0.068c0.374,0.026,0.765,0.16,1.173,0.402
			c0.405,0.239,0.738,0.59,1.002,1.054c0.263,0.464,0.427,0.997,0.489,1.601c0.146,1.418-0.283,2.469-1.284,3.157l2.595,4.747
			l-2.714,0.28l-1.979-4.331l-1.249,0.127l0.466,4.489l-2.495,0.259L70.779,21.433z M73.463,23.011l0.327,3.184l1.099-0.113
			c0.975-0.102,1.406-0.697,1.293-1.789c-0.039-0.376-0.141-0.679-0.311-0.904c-0.171-0.227-0.355-0.372-0.554-0.438
			c-0.201-0.065-0.487-0.08-0.856-0.041L73.463,23.011z"/>
		<path fill="#4F3F2B" d="M82.958,20.413l2.626,0.034l1.644,8.72l1.926-8.674l2.148,0.029L88.357,31.95l-2.807-0.097L82.958,20.413z
			"/>
		<path fill="#4F3F2B" d="M96.145,20.924l6.883,0.837l-0.232,1.94l-4.396-0.535l-0.32,2.63l3.416,0.414l-0.238,1.942l-3.416-0.417
			l-0.338,2.788l4.396,0.535l-0.246,2.024l-6.887-0.839L96.145,20.924z"/>
		<path fill="#4F3F2B" d="M107.393,22.535l7.158,1.588l-0.389,1.738l-6.299,6.373l4.801,1.066l-0.443,1.989l-7.641-1.697
			l0.379-1.704l6.334-6.4l-4.34-0.962L107.393,22.535z"/>
		<path fill="#4F3F2B" d="M121.514,26.167l2.391,0.801l-0.529,11.851l-2.434-0.815l0.211-2.415l-3.047-1.02l-1.275,2.057
			l-2.188-0.732L121.514,26.167z M121.326,33.585l0.391-4.795l-2.533,4.079L121.326,33.585z"/>
	</g>
</g>
</svg>
